<svg width="275" height="49" viewBox="0 0 275 49" fill="none" xmlns="http://www.w3.org/2000/svg">
<path d="M31.295 8.95501H39.8426C39.9896 8.95363 40.1355 8.98243 40.271 9.03963C40.4065 9.09682 40.5289 9.18121 40.6307 9.28757C40.7367 9.38947 40.8209 9.51202 40.8779 9.64767C40.9349 9.78333 40.9636 9.92922 40.9622 10.0764V36.9044C40.9589 37.2007 40.8399 37.4839 40.6306 37.6933C40.4213 37.9028 40.1383 38.022 39.8424 38.0252H31.295C30.999 38.0218 30.716 37.9027 30.5066 37.6932C30.2972 37.4838 30.178 37.2007 30.1744 36.9044V28.0584H21.8761V36.9044C21.8728 37.2008 21.7537 37.4841 21.5442 37.6936C21.3348 37.9031 21.0516 38.0222 20.7555 38.0252H12.2089C11.9154 38.0296 11.6321 37.9178 11.4208 37.714C11.3108 37.6107 11.2242 37.485 11.1669 37.3454C11.1096 37.2057 11.0829 37.0554 11.0885 36.9046V10.0766C11.0869 9.92931 11.1156 9.7833 11.1727 9.6476C11.2299 9.5119 11.3143 9.38941 11.4208 9.28776C11.5224 9.18125 11.6448 9.09676 11.7803 9.03953C11.9159 8.98229 12.0617 8.95353 12.2089 8.95501H20.7557C20.9029 8.95362 21.0488 8.98241 21.1845 9.0396C21.3202 9.0968 21.4427 9.18118 21.5446 9.28757C21.6506 9.38947 21.7348 9.51202 21.7918 9.64767C21.8488 9.78333 21.8775 9.92922 21.8761 10.0764V18.5898H30.1744V10.0766C30.1728 9.92931 30.2015 9.7833 30.2586 9.6476C30.3158 9.5119 30.4002 9.38941 30.5067 9.28776C30.6083 9.18129 30.7307 9.09683 30.8662 9.03963C31.0018 8.98243 31.1477 8.95369 31.2948 8.9552" fill="#FDF9F2"/>
<path d="M65.6827 8.95489H74.3546C74.4745 8.95355 74.5934 8.97682 74.7039 9.02327C74.8144 9.06972 74.9143 9.13836 74.9973 9.22494C75.0777 9.29559 75.1431 9.3817 75.1895 9.47815C75.236 9.5746 75.2626 9.67942 75.2678 9.78638C75.2693 9.97351 75.2265 10.1583 75.1429 10.3257L64.6867 27.644V36.905C64.6834 37.2013 64.5644 37.4845 64.3551 37.694C64.1458 37.9035 63.8629 38.0226 63.5669 38.0259H54.7287C54.4327 38.0225 54.1498 37.9033 53.9404 37.6939C53.731 37.4844 53.6118 37.2013 53.6082 36.905V27.6434L43.1937 10.3252C43.1103 10.1577 43.0676 9.97291 43.0693 9.78582C43.0742 9.67887 43.1006 9.57401 43.147 9.47753C43.1933 9.38105 43.2587 9.29495 43.3391 9.22438C43.4223 9.13779 43.5222 9.06916 43.6329 9.02271C43.7436 8.97627 43.8625 8.953 43.9825 8.95433H52.7367C53.0816 8.93496 53.4249 9.01447 53.7263 9.18353C54.0277 9.35258 54.2746 9.60417 54.4382 9.90877L59.1266 18.1316L63.9403 9.99318C64.355 9.30161 64.9358 8.95552 65.6827 8.95489" fill="#FDF9F2"/>
<path d="M78.8994 8.95416H94.4184C98.3458 8.95416 101.458 9.90935 103.754 11.8197C106.051 13.7301 107.198 16.1803 107.197 19.1704C107.197 22.1603 106.229 24.5344 104.293 26.293C102.357 28.0515 99.0655 28.9304 94.4184 28.9297H88.9411V36.9037C88.9374 37.2 88.8182 37.4831 88.6089 37.6927C88.3996 37.9022 88.1168 38.0216 87.8208 38.0253H78.8994C78.6033 38.0219 78.3202 37.9026 78.1108 37.693C77.9014 37.4834 77.7823 37.2001 77.7789 36.9037V10.0757C77.7773 9.92853 77.8059 9.78259 77.8629 9.64691C77.9199 9.51123 78.0042 9.3887 78.1104 9.2869C78.2122 9.18036 78.3347 9.09585 78.4704 9.03861C78.6061 8.98138 78.7521 8.95263 78.8994 8.95416M88.9813 16.6788V21.247H94.2507C94.5357 21.2585 94.8201 21.213 95.0873 21.1132C95.3546 21.0134 95.5992 20.8612 95.8071 20.6657C96.2076 20.2789 96.4081 19.739 96.4086 19.046C96.4336 18.4257 96.2265 17.8184 95.8278 17.3429C95.6309 17.1218 95.3872 16.9473 95.1143 16.8324C94.8415 16.7174 94.5465 16.6648 94.2509 16.6784L88.9813 16.6788Z" fill="#FDF9F2"/>
<path d="M129.904 8.95489H137.621C137.768 8.95358 137.914 8.98241 138.05 9.0396C138.185 9.09679 138.308 9.18114 138.409 9.28745C138.516 9.38921 138.6 9.51171 138.657 9.64739C138.714 9.78307 138.743 9.92903 138.742 10.0763V36.9043C138.738 37.2006 138.619 37.4837 138.409 37.6931C138.2 37.9025 137.917 38.0217 137.621 38.0251H130.941C130.615 38.0255 130.293 37.9463 130.004 37.7944C129.714 37.6424 129.466 37.4223 129.281 37.153L120.237 25.6078V36.9043C120.233 37.2006 120.114 37.4837 119.904 37.6931C119.695 37.9025 119.412 38.0217 119.116 38.0251H111.398C111.102 38.022 110.819 37.9029 110.61 37.6934C110.4 37.4839 110.281 37.2006 110.278 36.9043V10.0765C110.276 9.92927 110.305 9.78332 110.362 9.64764C110.419 9.51196 110.503 9.38943 110.61 9.28764C110.711 9.1812 110.834 9.09678 110.97 9.03958C111.105 8.98238 111.251 8.95362 111.398 8.95508H118.12C118.437 8.95003 118.75 9.02317 119.033 9.16805C119.315 9.31292 119.557 9.52508 119.738 9.78582L128.783 22.2851V10.0765C128.782 9.92927 128.81 9.78332 128.867 9.64764C128.924 9.51196 129.009 9.38943 129.115 9.28764C129.217 9.1812 129.339 9.09678 129.475 9.03958C129.611 8.98238 129.757 8.95362 129.904 8.95508" fill="#FDF9F2"/>
<path d="M172.578 21.0196V25.9603C172.578 28.7425 171.887 31.0643 170.504 32.9258C169.14 34.7736 167.243 36.1583 165.068 36.8933C162.827 37.6758 160.186 38.0672 157.143 38.0674C154.1 38.0677 151.459 37.6763 149.218 36.8933C147.043 36.1585 145.146 34.7737 143.783 32.9258C142.399 31.0631 141.708 28.7145 141.708 25.88V21.1007C141.708 17.0249 143.14 13.9744 146.003 11.9493C148.866 9.92411 152.579 8.91209 157.143 8.91321C161.707 8.91321 165.421 9.92523 168.284 11.9493C171.147 13.9733 172.578 16.9968 172.578 21.0196ZM152.911 20.3489V26.6314C152.911 27.7043 153.291 28.529 154.051 29.1052C154.812 29.6815 155.842 29.9694 157.142 29.9687C158.442 29.9687 159.473 29.6743 160.234 29.0854C160.995 28.4965 161.375 27.6655 161.375 26.5923V20.3886C161.375 19.3156 160.994 18.4846 160.234 17.8954C159.474 17.3063 158.443 17.0116 157.142 17.0114C155.842 17.0114 154.812 17.2992 154.051 17.8748C153.291 18.4505 152.911 19.2751 152.911 20.3487" fill="#FDF9F2"/>
<path d="M224.736 8.91292C215.442 8.91292 207.593 19.0573 205.24 22.4304C205.024 22.7475 204.908 23.1226 204.908 23.5067C204.908 23.8908 205.025 24.2659 205.242 24.5826C207.595 27.9491 215.442 38.0666 224.736 38.0666C234.03 38.0666 241.877 27.9321 244.231 24.5605C244.448 24.2436 244.564 23.8685 244.564 23.4844C244.564 23.1003 244.448 22.7252 244.231 22.4083C241.877 19.0397 234.03 8.91217 224.737 8.91217M215.056 23.4893C215.056 21.5731 215.624 19.6999 216.687 18.1066C217.751 16.5133 219.262 15.2714 221.031 14.538C222.8 13.8047 224.746 13.6127 226.624 13.9865C228.501 14.3603 230.226 15.2829 231.58 16.6378C232.934 17.9927 233.856 19.719 234.229 21.5984C234.603 23.4778 234.411 25.4258 233.679 27.1962C232.946 28.9666 231.706 30.4798 230.114 31.5444C228.522 32.6091 226.651 33.1774 224.736 33.1774C222.169 33.1773 219.707 32.1566 217.892 30.3398C216.076 28.5229 215.056 26.0588 215.056 23.4893M226.928 30.3575C227.404 30.1446 227.78 29.7586 227.982 29.2778C228.184 28.7971 228.195 28.2575 228.015 27.7686L227.975 27.6499C227.757 27.1751 227.007 26.6019 226.296 26.1475C226.197 23.776 226.237 23.1043 226.415 20.7519C227.086 20.2972 227.757 19.7833 227.975 19.3296L228.014 19.211C228.198 18.7222 228.188 18.1814 227.986 17.6998C227.784 17.2182 227.405 16.8322 226.928 16.6211C226.566 16.4621 226.165 16.413 225.776 16.4798C225.386 16.5467 225.025 16.7265 224.736 16.997C224.402 16.685 223.973 16.4951 223.518 16.4582C223.062 16.4212 222.608 16.5394 222.228 16.7935C221.848 17.0476 221.566 17.4227 221.426 17.8579C221.286 18.2931 221.297 18.7629 221.458 19.1909L221.497 19.3096C221.715 19.7638 222.386 20.2975 223.057 20.7319C223.235 23.1034 223.275 23.7758 223.176 26.1282C222.465 26.5824 221.714 27.1558 221.497 27.6299L221.458 27.7485C221.297 28.1766 221.286 28.6463 221.426 29.0815C221.566 29.5168 221.848 29.8919 222.228 30.146C222.608 30.4001 223.062 30.5182 223.518 30.4813C223.973 30.4443 224.402 30.2544 224.736 29.9424C225.016 30.2261 225.376 30.4179 225.767 30.4922C226.159 30.5666 226.564 30.5201 226.928 30.3588V30.3575Z" fill="#FDF9F2"/>
<path d="M195.098 8.9549H202.815C202.963 8.95358 203.109 8.9824 203.244 9.03958C203.38 9.09677 203.502 9.18113 203.604 9.28746C203.71 9.38935 203.795 9.5119 203.852 9.64755C203.909 9.78321 203.937 9.92911 203.936 10.0763V36.9043C203.933 37.2006 203.813 37.4839 203.604 37.6934C203.395 37.9029 203.111 38.022 202.815 38.0251H196.135C195.809 38.0256 195.487 37.9464 195.198 37.7945C194.909 37.6425 194.661 37.4223 194.476 37.153L185.43 25.6078V36.9043C185.427 37.2006 185.308 37.4837 185.098 37.6931C184.889 37.9026 184.606 38.0217 184.31 38.0251H176.592C176.296 38.0217 176.014 37.9026 175.804 37.6931C175.595 37.4837 175.476 37.2006 175.472 36.9043V10.0765C175.47 9.92923 175.499 9.78326 175.556 9.64759C175.614 9.51191 175.698 9.38941 175.804 9.28764C175.906 9.18117 176.028 9.09672 176.164 9.03952C176.299 8.98232 176.445 8.95358 176.592 8.95509H183.314C183.631 8.94995 183.945 9.02302 184.228 9.16786C184.51 9.31271 184.752 9.52487 184.933 9.78564L193.978 22.2851V10.0765C193.976 9.92926 194.005 9.78331 194.062 9.64763C194.119 9.51196 194.203 9.38943 194.31 9.28764C194.411 9.18117 194.534 9.09671 194.669 9.0395C194.805 8.9823 194.951 8.95357 195.098 8.95509" fill="#FDF9F2"/>
<path d="M272.116 22.606C274.039 23.9834 275.001 26.049 275 28.8026C275 31.5563 273.603 33.7888 270.809 35.5002C268.015 37.2115 264.309 38.067 259.69 38.0665C255.071 38.066 251.482 37.2227 248.923 35.5365C246.364 33.8493 245.084 31.7715 245.085 29.303C245.085 28.6989 245.403 28.3971 246.038 28.3976H254.544C255.063 28.3751 255.57 28.5585 255.955 28.908C256.729 29.6159 258.071 29.9693 259.98 29.9683C262.608 29.9683 263.921 29.5808 263.921 28.8056C263.921 28.3245 263.506 27.9434 262.677 27.6621C261.847 27.3809 260.201 27.1071 257.74 26.8406C249.911 25.9316 245.997 23.0308 245.998 18.1383C245.998 15.3844 247.257 13.1588 249.775 11.4614C252.293 9.76395 255.661 8.91493 259.879 8.91431C264.096 8.91431 267.505 9.82733 270.106 11.6534C272.707 13.4794 274.007 15.4084 274.006 17.4405C274.012 17.5633 273.99 17.6857 273.944 17.7995C273.897 17.9132 273.826 18.0155 273.737 18.0992C273.535 18.2718 273.276 18.3604 273.011 18.3466H264.088C263.615 18.356 263.157 18.1877 262.802 17.875C262.138 17.3001 261.142 17.0125 259.814 17.0123C257.961 17.0123 257.034 17.3866 257.034 18.1351C257.034 18.5366 257.394 18.8508 258.113 19.0776C258.832 19.3044 260.271 19.5382 262.428 19.7788C266.964 20.287 270.193 21.2294 272.116 22.606" fill="#FDF9F2"/>
<path d="M239.058 5.05072C241.362 6.23479 243.115 7.86071 244.103 10.1008H244.057C245.046 7.86071 246.799 6.23479 249.103 5.05072C246.8 3.8659 245.046 2.24074 244.058 0.000793457H244.104C243.115 2.24074 241.362 3.8659 239.058 5.05072Z" fill="#FDF9F2"/>
<path d="M138.742 43.0751C141.045 44.2599 142.799 45.8851 143.787 48.125H143.74C144.728 45.8851 146.483 44.2599 148.785 43.0751C146.482 41.8903 144.728 40.2651 143.74 38.0251H143.787C142.798 40.2651 141.044 41.8903 138.741 43.0751" fill="#FDF9F2"/>
<path d="M0 5.04993C2.30317 6.23493 4.05737 7.8601 5.04535 10.1H4.99898C5.98733 7.8601 7.74079 6.23493 10.0445 5.04993C7.74079 3.86511 5.98733 2.23994 4.99898 0H5.04535C4.05737 2.23994 2.30317 3.86511 0 5.04993Z" fill="#FDF9F2"/>
</svg>
